<svg xmlns="http://www.w3.org/2000/svg" width="512" height="512" viewBox="24.767 -24.793 466.626 466.626">
  <title>kinolin symbol</title>
  <g id="kinolin-symbol">
  <!-- K 左上 -->
    <path id="k-stem" d="M 158.867 82.184 Q 167.14 58 192.696 58.426 L 235.302 59.136 Q 252.34 59.42 246.334 75.367 L 214.663 159.458 Q 211.16 168.76 204.691 176.307 L 87.778 312.706 Q 74.84 327.8 81.275 308.99 Z" fill="#ffffff"/>
    <!--K 中间 -->
    <path id="k-diagonal" d="M 273.319 107.452 Q 282.16 96.34 296.349 95.787 L 368.797 92.965 Q 391.5 92.08 376.799 109.403 L 179.586 341.788 Q 168.56 354.78 151.522 354.514 L 97.558 353.671 Q 77.68 353.36 90.057 337.803 Z" fill="#ffffff"/>
    <!--K 右下 -->
    <path id="k-lower" d="M 288.743 237.437 Q 297.78 228.4 305.79 238.358 L 388.62 341.336 Q 402.86 359.04 380.14 359.04 L 309.14 359.04 Q 292.1 359.04 281.488 345.707 L 242.91 297.237 Q 236.72 289.46 243.749 282.431 Z" fill="#ffffff"/>
    <!-- K 右上星星 -->
    <path id="spark" d="M 421.32 104.86 Q 424.935 119.705 436.94 123.32 Q 424.935 126.935 421.32 141.78 Q 417.705 126.935 405.7 123.32 Q 417.705 119.705 421.32 104.86 Z" fill="#ffffff"/>
  </g>
</svg>
